<?xml version="1.0" standalone="no"?>
<!DOCTYPE svg PUBLIC "-//W3C//DTD SVG 20010904//EN"
 "http://www.w3.org/TR/2001/REC-SVG-20010904/DTD/svg10.dtd">
<svg version="1.0" xmlns="http://www.w3.org/2000/svg"
 width="763.000000pt" height="763.000000pt" viewBox="0 0 763.000000 763.000000"
 preserveAspectRatio="xMidYMid meet">
<metadata>
Created by potrace 1.11, written by Peter Selinger 2001-2013
</metadata>
<g transform="translate(0.000000,763.000000) scale(0.100000,-0.100000)"
fill="#000000" stroke="none">
<path d="M2360 6873 c-123 -11 -314 -45 -390 -67 -190 -58 -313 -85 -471 -105
-199 -25 -300 -54 -393 -115 -190 -126 -301 -263 -371 -459 -12 -34 -40 -72
-97 -130 -44 -45 -88 -99 -99 -119 -38 -73 -20 -193 45 -301 33 -54 34 -59 22
-90 -8 -17 -17 -68 -21 -112 -4 -44 -14 -93 -22 -109 -35 -68 -3 -161 79 -229
l42 -35 -48 -128 c-62 -167 -81 -202 -156 -299 -81 -105 -102 -147 -108 -220
-4 -57 -2 -65 47 -158 43 -81 51 -106 51 -150 0 -66 -47 -168 -117 -249 -118
-139 -178 -203 -193 -210 -30 -11 -70 -68 -70 -99 0 -48 17 -67 88 -100 105
-47 152 -102 152 -178 0 -28 -8 -48 -25 -69 -30 -36 -31 -51 -5 -85 24 -31
133 -87 168 -87 21 0 24 -3 18 -27 -4 -16 -9 -67 -13 -114 -7 -103 9 -146 80
-227 80 -90 85 -165 22 -348 -102 -296 -29 -460 247 -552 150 -50 267 -65 448
-59 199 7 377 40 545 101 l63 23 32 -80 c53 -135 71 -220 72 -342 1 -169 -51
-327 -167 -505 -25 -40 -44 -78 -42 -84 13 -34 399 -46 658 -21 217 21 329 54
363 108 8 12 16 63 20 117 10 165 60 294 100 261 12 -10 15 -37 15 -131 -2
-188 35 -238 155 -208 74 19 617 214 705 253 115 52 135 110 88 251 -37 106
-51 194 -41 239 5 21 14 40 20 42 6 2 32 -15 58 -38 33 -30 58 -65 88 -128 88
-185 133 -209 278 -149 128 53 340 169 357 195 13 20 18 46 17 97 -1 65 -6 78
-63 188 -63 121 -79 176 -64 216 8 22 11 21 52 -30 49 -62 283 -273 325 -295
20 -10 47 -14 82 -11 60 5 50 -1 343 198 l199 134 -44 56 c-96 118 -343 451
-420 565 -185 274 -372 618 -393 722 -6 33 -16 143 -21 244 -5 101 -19 276
-30 388 -19 189 -19 206 -4 214 9 5 43 38 77 73 33 35 66 64 74 64 8 0 49 -34
91 -75 205 -199 598 -465 1114 -751 390 -216 702 -342 1101 -443 152 -39 445
-96 453 -89 2 2 -7 78 -20 169 -38 260 -50 454 -43 702 3 122 11 259 17 305 7
46 10 86 7 89 -3 3 -108 12 -234 20 -125 8 -229 16 -230 17 -22 22 -39 502
-21 601 l7 40 -442 0 c-459 1 -656 11 -1052 56 -219 25 -517 67 -524 75 -3 3
-19 33 -36 67 -39 80 -70 98 -121 68 -65 -38 -140 -17 -174 49 -25 49 -52 65
-82 49 -19 -10 -26 -7 -60 29 l-38 41 31 50 c18 28 34 69 36 95 5 41 3 46 -19
51 -13 3 -36 1 -52 -5 -46 -17 -81 18 -456 460 -297 350 -425 478 -594 592
-114 76 -197 118 -324 162 -169 59 -290 78 -507 81 -104 2 -210 1 -235 -2z"/>
</g>
</svg>
